/* XPM */
static char *_bb59e170c0d40c586be506e1f399cf4IMEwvt6GPhAr8vMP[] = {
/* columns rows colors chars-per-pixel */
"64 64 12 1 ",
"  c gray45",
". c gray50",
"X c #808080",
"o c gray55",
"O c #8C8C8D",
"+ c gray56",
"@ c #BDBDBC",
"# c #C1C0C0",
"$ c #C9C8C8",
"% c #C8C8C9",
"& c gray79",
"* c gray81",
/* pixels */
"&&&&@@@@@@@@++++&&&&&&&&&&&&++++@@@@@@@@&&&&++++&&&&&&&&&&&&++++",
"&&&&@@@@@@@@++++&&&&&&&&&&&&++++@@@@@@@@&&&&++++&&&&&&&&&&&&++++",
"&&&&@@@@@@@@++++&&&&&&&&&&&&++++@@@@@@@@&&&&++++&&&&&&&&&&&&++++",
"&&&&@@@@@@@@++++&&&&&&&&&&&&++++@@@@@@@@&&&&++++&&&&&&&&&&&&++++",
"&&&&&&&&&&&&XXXX&&&&&&&&@@@@++++&&&&&&&&&&&&++++@@@@@@@@&&&&XXXX",
"&&&&&&&&&&&&XXXX&&&&&&&&@@@@++++&&&&&&&&&&&&++++@@@@@@@@&&&&XXXX",
"&&&&&&&&&&&&XXXX&&&&&&&&@@@@++++&&&&&&&&&&&&++++@@@@@@@@&&&&XXXX",
"&&&&&&&&&&&&XXXX&&&&&&&&@@@@++++&&&&&&&&&&&&++++@@@@@@@@&&&&XXXX",
"++++XXXXXXXXXXXX                    XXXXXXXX++++++++++++XXXXXXXX",
"++++XXXXXXXXXXXX                    XXXXXXXX++++++++++++XXXXXXXX",
"++++XXXXXXXXXXXX                    XXXXXXXX++++++++++++XXXXXXXX",
"++++XXXXXXXXXXXX                    XXXXXXXX++++++++++++XXXXXXXX",
"&&&&&&&&&&&&&&&&++++&&&&&&&&&&&&&&&&&&&&&&&&&&&&++++&&&&&&&&&&&&",
"&&&&&&&&&&&&&&&&++++&&&&&&&&&&&&&&&&&&&&&&&&&&&&++++&&&&&&&&&&&&",
"&&&&&&&&&&&&&&&&++++&&&&&&&&&&&&&&&&&&&&&&&&&&&&++++&&&&&&&&&&&&",
"&&&&&&&&&&&&&&&&++++&&&&&&&&&&&&&&&&&&&&&&&&&&&&++++&&&&&&&&&&&&",
"@@@@@@@@&&&&&&&&++++@@@@@@@@&&&&&&&&&&&&&&&&&&&&    &&&&&&&&@@@@",
"@@@@@@@@&&&&&&&&++++@@@@@@@@&&&&&&&&&&&&&&&&&&&&    &&&&&&&&@@@@",
"@@@@@@@@&&&&&&&&++++@@@@@@@@&&&&&&&&&&&&&&&&&&&&    &&&&&&&&@@@@",
"@@@@@@@@&&&&&&&&++++@@@@@@@@&&&&&&&&&&&&&&&&&&&&    &&&&&&&&@@@@",
"&&&&&&&&&&&&&&&&++++&&&&&&&&&&&&&&&&&&&&&&&&&&&&    &&&&&&&&&&&&",
"&&&&&&&&&&&&&&&&++++&&&&&&&&&&&&&&&&&&&&&&&&&&&&    &&&&&&&&&&&&",
"&&&&&&&&&&&&&&&&++++&&&&&&&&&&&&&&&&&&&&&&&&&&&&    &&&&&&&&&&&&",
"&&&&&&&&&&&&&&&&++++&&&&&&&&&&&&&&&&&&&&&&&&&&&&    &&&&&&&&&&&&",
"&&&&&&&&&&&&&&&&++++&&&&&&&&&&&&&&&&@@@@@@@@@@@@    &&&&@@@@@@@@",
"&&&&&&&&&&&&&&&&++++&&&&&&&&&&&&&&&&@@@@@@@@@@@@    &&&&@@@@@@@@",
"&&&&&&&&&&&&&&&&++++&&&&&&&&&&&&&&&&@@@@@@@@@@@@    &&&&@@@@@@@@",
"&&&&&&&&&&&&&&&&++++&&&&&&&&&&&&&&&&@@@@@@@@@@@@    &&&&@@@@@@@@",
"XXXXXXXXXXXX++++++++............XXXX                ++++XXXXXXXX",
"XXXXXXXXX.XX++++++++............XXXX                ++++XXXXXXXX",
"XXXXXXXX....++++++++............XXXX                ++++XXXXXXXX",
"XXXXXXXX...X++++++++............XXXX                ++++XXXXXXXX",
"&&&&&&&&&&&&&&&&&&&&&&&&&&&&&&&&++++&&&&&&&&&&&&&&&&&&&&&&&&&&&&",
"&&&&&&&&&&&&&&&&&&&&&&&&&&&&&&&&++++&&&&&&&&&&&&&&&&&&&&&&&&&&&&",
"&&&&&&&&&&&&&&&&&&&&&&&&&&&&&&&&++++&&&&&&&&&&&&&&&&&&&&&&&&&&&&",
"&&&&&&&&&&&&&&&&&&&&&&&&&&&&&&&&++++&&&&&&&&&&&&&&&&&&&&&&&&&&&&",
"&&&&############********&&&&&&&&++++&&&&****############&&&&&&&&",
"&&&&############********&&&&&&&&++++&&&&****############&&&&&&&&",
"&&&&############********&&&&&&&&++++&&$&****############&&&&&&&&",
"&&&&############********&&&&&&&&++++&&&&****############&&&&&&&&",
"&&&&&&&&&&&&&&&&&&&&&&&&&&&&&&&&++++&&&&&&&&&&&&&&&&********&&&&",
"&&&&&&&&&&&&&&&&&&&&&&&&&&&&&&&&++++&&&&&&&&&&&&&&&&********&&&&",
"&&&&&&&&&&&&&&&&&&&&&&&&&&&&&&&&++++&&&&&&&&&&&&&&&&********&&&&",
"&&&&&&&&&&&&&&&&&&&&&&&&&&&&&&&&++++&&&&&&&&&&&&&&&&********&&&&",
"&&&&&&&&&&&&########@@@@&&&&&&&&....&&&&&&&&****########********",
"&&&&&&&&&&&&########@@@@&&&&&&&&....&&&&&&&&****########********",
"&&&&&&&&&&&&########@@@@&&&&&&&&....&&&&&&&&****########********",
"&&&&&&&&&&&&########@@@@&&&&&&&&....&&&&&&&&****########********",
"&&&&&&&&&&&&&&&&&&&&&&&&&&&&&&&&....&&&&&&&&&&&&&&&&&&&&&&&&&&&&",
"&&&&&&&&&&&&&&&&&&&&&&&&&&&&&&&&....&&&&&&&&&&&&&&&&&&&&&&&&&&&&",
"&&&&&&&&&&&&&&&&&&&&&&&&&&&&&&&&....&&&&&&&&&&&&&&&&&&&&&&&&&&&&",
"&&&&&&&&&&&&&&&&&&&&&&&&&&&&&&&&....&&&&&&&&&&&&&&&&&&&&&&&&&&&&",
"****########&&&&&&&&&&&&&&&&&&&&    &&&&&&&&&&&&&&&&&&&&********",
"****########&&&&&&&&&&&&&&&&&&&&    &&&&&&&&&&&&&&&&&&&&********",
"****########&&&&&&&&&&&&&&&&&&&&    &&&&&&&&&&&&&&&&&&&&********",
"****########&&&&&&&&&&&&&&&&&&&&    &&&&&&&&&&&&&&&&&&&&********",
"++++            XXXXXXXXXXXX++++                    XXXXXXXX++++",
"++++            XXXXXXXXXXXX++++                    XXXXXXXX++++",
"++++            XXXXXXXXXXXX++++                    XXXXXXXX++++",
"++++            XXXXXXXXXXXX++++                    XXXXXXXX++++",
"@@@@@@@@&&&&XXXX&&&&&&&&&&&&++++@@@@@@@@&&&&    &&&&&&&&&&&&++++",
"@@@@@@@@&&&&XXXX&&&&&&&&&&&&++++@@@@@@@@&&&&    &&&&&&&&&&&&++++",
"@@@@@@@@&&&&XXXX&&&&&&&&&&&&++++@@@@@@@@&&&&    &&&&&&&&&&&&++++",
"@@@@@@@@&&&&XXXX&&&&&&&&&&&&++++@@@@@@@@&&&&    &&&&&&&&&&&&++++"
};
