/* XPM */
static char *_3902c80880b4f62c4120fe3753ffcd5H8ZRsoe65JMkRseC[] = {
/* columns rows colors chars-per-pixel */
"64 64 53 1 ",
"  c #000000",
". c #0C0B0B",
"X c #111111",
"o c #393839",
"O c #464646",
"+ c #4C4C4C",
"@ c #515151",
"# c #5C5C5B",
"$ c #646464",
"% c #696969",
"& c #6A6A6A",
"* c gray42",
"= c #6E6F6E",
"- c #6F6F6F",
"; c gray44",
": c #717070",
"> c #747475",
", c #777777",
"< c gray47",
"1 c #7B7B7A",
"2 c #7B7B7B",
"3 c #7E7E7E",
"4 c #7F7E7E",
"5 c #818181",
"6 c #838282",
"7 c #828383",
"8 c #838383",
"9 c #858484",
"0 c gray53",
"q c #898889",
"w c #8A8B8B",
"e c #8D8D8D",
"r c gray56",
"t c #909191",
"y c gray58",
"u c #959595",
"i c #979796",
"p c #969797",
"a c #979797",
"s c #989898",
"d c #9B9A9B",
"f c #9B9B9B",
"g c #9C9C9C",
"h c #9F9F9F",
"j c #A1A1A0",
"k c #A3A2A3",
"l c #A4A4A4",
"z c #A5A4A4",
"x c #A8A8A8",
"c c #A9A9A9",
"v c gray68",
"b c #B4B4B4",
"n c #B4B5B4",
/* pixels */
"eeuuqqtt99qqqquuuuuutt9999  gfff11@@hhqqeeqqttttqqff  qquuee;;++",
"eeuuqqtt99qqqquuuuuutt9999  gfff11@@hhqqeeqqttttqqff  qquuee;;++",
"@@&&7733ff11111111ff>>qqee  @@77tt$$>>uuuu>>ff11==tt  ++$$33@@ff",
"@@&&7733ff11111111ff>>qqee  @@77tt$$>>uuuu>>ff11==tt  ++$$33@@ff",
"&&77777777777777777777>>hh  @@&&7711@@7777777777qquu  @@&&##qqtt",
"&&77777777777777777777>>hh  @@&&7711@@7777777777qquu  @@&&##qqtt",
"&&77997777777777777777tttt  &&777777777777777777qqqq  &&3333==uu",
"&&77997777777777777777tttt  &&777777777777777777qqqq  &&3333==uu",
"&&77777777777777777777tthh  &&&&7777777777777777qquu  &&&&77qqqq",
"&&77777777777777777777tthh  &&&&7777777777777777qquu  &&&&77qqqq",
"@@&&&&777777&&&&&&7777##uu  @@&&&&77&&&&7777&&77##tt  &&&&77##uu",
"@@&&&&777777&&&&&&7777##uu  @@&&&&77&&&&7777&&77##tt  &&&&77##uf",
"&&&&&&&&@@@@&&&&@@&&&&$$hh  &&&&@@&&&&&&&&@@&&@@$$hh  ++&&@@##uu",
"&&&&&&&&@@@@&&&&@@&&&&$$hh  &&&&@@&&&&&&&&@@&&@@$$hh  ++&&@@##uu",
"              XXXX                                              ",
"              XXXX                                              ",
"zzzznnnnffff..oo11uuqqeeeeuuhhhhhhee##  ffffffxxxxffffffxxzzffhh",
"zzzznnnnffff..oo11uuqqeeeeuuhhhhhhee##  ffffffxxxxffffffxxzzffhh",
"zz77zz7711ffXXOO@@3377qq>>>>>>uu1177$$..++11zz7777zzzz77ll3311ff",
"zz77zz7711ffXXOO@@3377qq>>>>>>uu1177$$..++11zz7777zzzz77zz3311ff",
"77777777ffxx..@@$$$$77ff77777777>>&&ff..OO@###11777777777777hhkk",
"77777777ffxx..@@$$$$77ff77777777>>&&ff..OO@###11777777777777hhkk",
"77777777ffff  $$==$$$$hh77777777==$$ff  &&11>>@@777777777777hhff",
"77777777ffff  $$==$$$$hh77777777==$$ff  &&11>>@@777777777777hhff",
"77777777hhvv  &&&&;;@@qq77777733&&##xx  &&&&7777777777777777ffxx",
"77777777hhvv  &&&&;;@@qq77777733&&##xx  &&&&7777777777777777ffxx",
"7777&&77&&zz  &&&&>>@@kk&&&&&&11##$$hh  @@&&&&77&&&&7777&&77$$ff",
"7777&&77&&zz  &&&&>>@@kk&&&&&&11##$$fh  @@&&&&77&&&&7777&&77$$ff",
"&&@@&&@@&&zz  @@&&@@&&@@&&&&@@$$@@$$hh  &&&&@@&&&&&&&&@@&&@@$$hh",
"&&@@&&@@&&zz  @@&&@@&&@@&&&&@@$$@@$$hh  &&&&@@&&&&&&&&@@&&@@$$hh",
"                                                                ",
"                                                                ",
"zznnzznnffuuuukkkkhhkkzzzz  zzffuukkkkuuuuuuxxnnzzzz  ttuuuutthh",
"zznnzznnffuuuukkkkhhkkzzzz  zzffuukkkkuuuuuuxxnnzzzz  ttuuuutthh",
"@@&&7777zz77777777ff>>uuff  @@11uu>>>>uuuu>>uu>>>>ff  ++##9999tt",
"@@&&7777zz77777777ff>>uuff  @@11uu>>>>uuuu>>uu>>>>ff  ++##9999tt",
"&&77777777777777777711;;kk  @@&&77777777777711>>eekk  @@&&1199qq",
"&&77777777777777777711;;kk  @@&&77777777777711>>eekk  @@&&1199qq",
"&&77777777777777777777uuuu  &&777777777777777777uuuu  &&7777==uu",
"&&77777777777777777777uuuu  &&777777777777777777uuuu  &&7777==uu",
"&&77777777777777777777uukk  &&&&7777777777777777uukk  &&&&77qqqq",
"&&77777777777777777777uukk  &&&&7777777777777777uukk  &&&&77qqqq",
"@@&&&&777777&&&&&&7777##uu  @@&&&&77&&&&7777&&77##uu  &&&&77##uu",
"@@&&&&777777&&&&&&7777##uu  @@&&&&77&&&&7777&&77##uu  &&&&77##uu",
"&&&&&&&&@@@@&&&&@@&&&&$$ff  &&&&@@&&&&$$$$++$$++$$ff  @@&&@@##uu",
"&&&&&&&&@@@@&&&&@@&&&&$$ff  &&&&@@&&&&$$$$++$$++$$ff  @@&&@@##uu",
"                                                                ",
"                                                                ",
"zzzznnnnzzzz  ffzzzzuueeeeuuuuuuuueehh  hhzzhhxxxxffffffzzzzffhh",
"zzzznnnnzzzz  ffzzzzuueeeeuuuuuuuueehf  hhzzhhxxxxffffffzzzzffhh",
"zz77zz7777zz  @@$$ffee99;;>>>>uu;;99tt  @@77zz7777zzzz77hh11>>ff",
"zz77zz7777zz  @@$$ffee99;;>>>>uu;;99tt  @@77zz7777zzzz77hh11>>ff",
"77777777zznn  @@&&1199991177777711&&uu  @@&&7777777777777777ffzz",
"77777777zznn  @@&&1199991177777711&&uu  @@&&7777777777777777ffzz",
"99777777zzzz  &&77>>&&hh3777777777qqqq  &&777777777777777777uuuu",
"99777777zzzz  &&77>>&&hh7777777777qqqq  &&777777777777777777uuuu",
"99777777kzbb  $$&&;;99uu3377333377qquu  &&&&7777777777777777uukk",
"99777777zkbb  $$&&;;99uu3377333377qquu  &&&&7777777777777777uukk",
"9977&&77&&hh  $$$$;;@@kk$$&$$$3311@@qq  ++&&&&77&&&&7777&&77$$ff",
"9977&&77&&kh  $$$$;;@@kk$$$$$$3311@@qq  ++&&&&77&&&&7777&&77$$ff",
"&&++&&++$$hh  ++$$OO##uu$$$$++$$####uu  $$&&@@&&&&&&&&@@&&@@$$hh",
"&&++&&++$$hh  ++$$OO##uu$$$$++$$####uu  $$&&@@&&&&&&&&@@&&@@$$hh",
"                                                                ",
"                                                                "
};
