/* XPM */
static char *_a4888e13825427a8b4cf701a919a86aEZFSFOsWu0MQ569k[] = {
/* columns rows colors chars-per-pixel */
"64 64 6 1 ",
"  c black",
". c #805A4A",
"X c #99725F",
"o c #B48870",
"O c #E0A486",
"+ c #DBB6A4",
/* pixels */
"OO++OO++OOOOOO++++++++OOOO  OOOOOO++++OOOOOO++++OOOO  OO++++OOOO",
"OO++OO++OOOOOO++++++++OOOO  OOOOOO++++OOOOOO++++OOOO  OO++++OOOO",
"..XXooooOOooooooooOOooOOOO  ..ooOOooooOOOOooOOooooOO  ..XXOOOOOO",
"..XXooooOOooooooooOOooOOOO  ..ooOOooooOOOOooOOooooOO  ..XXOOOOOO",
"XXoooooooooooooooooooooo++  ..XXooooooooooooooooOO++  ..XXooOOOO",
"XXoooooooooooooooooooooo++  ..XXooooooooooooooooOO++  ..XXooOOOO",
"XXooooooooooooooooooooOOOO  XXooooooooooooooooooOOOO  XXoooooo++",
"XXooooooooooooooooooooOOOO  XXooooooooooooooooooOOOO  XXoooooo++",
"XXooooooooooooooooooooOO++  XXXXooooooooooooooooOO++  XXXXooOOOO",
"XXooooooooooooooooooooOO++  XXXXooooooooooooooooOO++  XXXXooOOOO",
"..XXXXooooooXXXXXXooooXXOO  ..XXXXooXXXXooooXXooXXOO  XXXXooXX++",
"..XXXXooooooXXXXXXooooXXOO  ..XXXXooXXXXooooXXooXXOO  XXXXooXX++",
"XXXXXXXX....XXXX..XXXXXXOO  XXXX..XXXXXXXX..XX..XXOO  ..XX..XXOO",
"XXXXXXXX....XXXX..XXXXXXOO  XXXX..XXXXXXXX..XX..XXOO  ..XX..XXOO",
"                                                                ",
"                                                                ",
"OOOO++++OOOO  OO++++OOOOOO++++++++OOOO  OOOOOO++++OOOOOO++++OOOO",
"OOOO++++OOOO  OO++++OOOOOO++++++++OOOO  OOOOOO++++OOOOOO++++OOOO",
"OOooOOooooOO  ..XXOOOOOOooooooOOooOOOO  ..ooOOooooOOOOooOOooooOO",
"OOooOOooooOO  ..XXOOOOOOooooooOOooOOOO  ..ooOOooooOOOOooOOooooOO",
"ooooooooOO++  ..XXooOOOOoooooooooooo++  ..XXooooooooooooooooOO++",
"ooooooooOO++  ..XXooOOOOoooooooooooo++  ..XXooooooooooooooooOO++",
"ooooooooOOOO  XXoooooo++ooooooooooOOOO  XXooooooooooooooooooOOOO",
"ooooooooOOOO  XXoooooo++ooooooooooOOOO  XXooooooooooooooooooOOOO",
"ooooooooOO++  XXXXooOOOOooooooooooOO++  XXXXooooooooooooooooOO++",
"ooooooooOO++  XXXXooOOOOooooooooooOO++  XXXXooooooooooooooooOO++",
"ooooXXooXXOO  XXXXooXX++XXXXXXooooXXOO  ..XXXXooXXXXooooXXooXXOO",
"ooooXXooXXOO  XXXXooXX++XXXXXXooooXXOO  ..XXXXooXXXXooooXXooXXOO",
"XX..XX..XXOO  ..XX..XXOOXXXX..XXXXXXOO  XXXX..XXXXXXXX..XX..XXOO",
"XX..XX..XXOO  ..XX..XXOOXXXX..XXXXXXOO  XXXX..XXXXXXXX..XX..XXOO",
"                                                                ",
"                                                                ",
"OO++OO++OOOOOO++++++++OOOO  OOOOOO++++OOOOOO++++OOOO  OO++++OOOO",
"OO++OO++OOOOOO++++++++OOOO  OOOOOO++++OOOOOO++++OOOO  OO++++OOOO",
"..XXooooOOooooooooOOooOOOO  ..ooOOooooOOOOooOOooooOO  ..XXOOOOOO",
"..XXooooOOooooooooOOooOOOO  ..ooOOooooOOOOooOOooooOO  ..XXOOOOOO",
"XXoooooooooooooooooooooo++  ..XXooooooooooooooooOO++  ..XXooOOOO",
"XXoooooooooooooooooooooo++  ..XXooooooooooooooooOO++  ..XXooOOOO",
"XXooooooooooooooooooooOOOO  XXooooooooooooooooooOOOO  XXoooooo++",
"XXooooooooooooooooooooOOOO  XXooooooooooooooooooOOOO  XXoooooo++",
"XXooooooooooooooooooooOO++  XXXXooooooooooooooooOO++  XXXXooOOOO",
"XXooooooooooooooooooooOO++  XXXXooooooooooooooooOO++  XXXXooOOOO",
"..XXXXooooooXXXXXXooooXXOO  ..XXXXooXXXXooooXXooXXOO  XXXXooXX++",
"..XXXXooooooXXXXXXooooXXOO  ..XXXXooXXXXooooXXooXXOO  XXXXooXX++",
"XXXXXXXX....XXXX..XXXXXXOO  XXXX..XXXXXXXX..XX..XXOO  ..XX..XXOO",
"XXXXXXXX....XXXX..XXXXXXOO  XXXX..XXXXXXXX..XX..XXOO  ..XX..XXOO",
"                                                                ",
"                                                                ",
"OOOO++++OOOO  OO++++OOOOOO++++++++OOOO  OOOOOO++++OOOOOO++++OOOO",
"OOOO++++OOOO  OO++++OOOOOO++++++++OOOO  OOOOOO++++OOOOOO++++OOOO",
"OOooOOooooOO  ..XXOOOOOOooooooOOooOOOO  ..ooOOooooOOOOooOOooooOO",
"OOooOOooooOO  ..XXOOOOOOooooooOOooOOOO  ..ooOOooooOOOOooOOooooOO",
"ooooooooOO++  ..XXooOOOOoooooooooooo++  ..XXooooooooooooooooOO++",
"ooooooooOO++  ..XXooOOOOoooooooooooo++  ..XXooooooooooooooooOO++",
"ooooooooOOOO  XXoooooo++ooooooooooOOOO  XXooooooooooooooooooOOOO",
"ooooooooOOOO  XXoooooo++ooooooooooOOOO  XXooooooooooooooooooOOOO",
"ooooooooOO++  XXXXooOOOOooooooooooOO++  XXXXooooooooooooooooOO++",
"ooooooooOO++  XXXXooOOOOooooooooooOO++  XXXXooooooooooooooooOO++",
"ooooXXooXXOO  XXXXooXX++XXXXXXooooXXOO  ..XXXXooXXXXooooXXooXXOO",
"ooooXXooXXOO  XXXXooXX++XXXXXXooooXXOO  ..XXXXooXXXXooooXXooXXOO",
"XX..XX..XXOO  ..XX..XXOOXXXX..XXXXXXOO  XXXX..XXXXXXXX..XX..XXOO",
"XX..XX..XXOO  ..XX..XXOOXXXX..XXXXXXOO  XXXX..XXXXXXXX..XX..XXOO",
"                                                                ",
"                                                                "
};
