/* XPM */
static char *e4b866c59d6b4a96ddb567608f557d4brfM2LcBrJey4Hiz6[] = {
/* columns rows colors chars-per-pixel */
"64 64 6 1 ",
"  c black",
". c #737372",
"X c gray45",
"o c #9F9F9E",
"O c #9E9E9F",
"+ c white",
/* pixels */
"++++++++++++    ++++++++++++++++++++++++++++    ++++++++++++++++",
"++++++++++++    ++++++++++++++++++++++++++++    ++++++++++++++++",
"++++++++++++    ++++++++++++++++++++++++++++    ++++++++++++++++",
"++++++++++++    ++++++++++++++++++++++++++++    ++++++++++++++++",
"oooooooo....    ++++oooooooooooooooooooo....    ++++oooooooooooo",
"oooooooo....    ++++oooooooooooooooooooo....    ++++oooooooooooo",
"oooooooo....    ++++oooooooooooooooooooo....    ++++oooooooooooo",
"oooooooo....    ++++oooooooooooooooooooo....    ++++oooooooooooo",
"oooooooo....    ++++oooooooooooooooooooo....    ++++oooooooooooo",
"oooooooo....    ++++oooooooooooooooooooo....    ++++oooooooooooo",
"oooooooo....    ++++oooooooooooooooooooo....    ++++oooooooooooo",
"oooooooo....    ++++oooooooooooooooooooo....    ++++oooooooooooo",
"oooooooo....    ++++oooooooooooooooooooo....    ++++oooooooooooo",
"oooooooo....    ++++oooooooooooooooooooo....    ++++oooooooooooo",
"oooooooo....    ++++oooooooooooooooooooo....    ++++oooooooooooo",
"oooooooo....    ++++oooooooooooooooooooo....    ++++oooooooooooo",
"oooooooo....    ++++oooooooooooooooooooo....    ++++oooooooooooo",
"oooooooo....    ++++oooooooooooooooooooo....    ++++oooooooooooo",
"oooooooo....    ++++oooooooooooooooooooo....    ++++oooooooooooo",
"oooooooo....    ++++oooooooooooooooooooo....    ++++oooooooooooo",
"oooooooo....    ++++oooooooooooooooooooo....    ++++oooooooooooo",
"oooooooo....    ++++oooooooooooooooooooo....    ++++oooooooooooo",
"oooooooo....    ++++oooooooooooooooooooo....    ++++oooooooooooo",
"oooooooo....    ++++oooooooooooooooooooo....    ++++oooooooooooo",
"............    ++++........................    ++++............",
"............    ++++........................    ++++............",
"............    ++++........................    ++++............",
"............    ++++........................    ++++............",
"                                                                ",
"                                                                ",
"                                                                ",
"                                                                ",
"++++++++++++++++++++++++++++    ++++++++++++++++++++++++++++    ",
"++++++++++++++++++++++++++++    ++++++++++++++++++++++++++++    ",
"++++++++++++++++++++++++++++    ++++++++++++++++++++++++++++    ",
"++++++++++++++++++++++++++++    ++++++++++++++++++++++++++++    ",
"++++oooooooooooooooooooo....    ++++oooooooooooooooooooo....    ",
"++++oooooooooooooooooooo....    ++++oooooooooooooooooooo....    ",
"++++oooooooooooooooooooo....    ++++oooooooooooooooooooo....    ",
"++++oooooooooooooooooooo....    ++++oooooooooooooooooooo....    ",
"++++oooooooooooooooooooo....    ++++oooooooooooooooooooo....    ",
"++++oooooooooooooooooooo....    ++++oooooooooooooooooooo....    ",
"++++oooooooooooooooooooo....    ++++oooooooooooooooooooo....    ",
"++++oooooooooooooooooooo....    ++++oooooooooooooooooooo....    ",
"++++oooooooooooooooooooo....    ++++oooooooooooooooooooo....    ",
"++++oooooooooooooooooooo....    ++++oooooooooooooooooooo....    ",
"++++oooooooooooooooooooo....    ++++oooooooooooooooooooo....    ",
"++++oooooooooooooooooooo....    ++++oooooooooooooooooooo....    ",
"++++oooooooooooooooooooo....    ++++oooooooooooooooooooo....    ",
"++++oooooooooooooooooooo....    ++++oooooooooooooooooooo....    ",
"++++oooooooooooooooooooo....    ++++oooooooooooooooooooo....    ",
"++++oooooooooooooooooooo....    ++++oooooooooooooooooooo....    ",
"++++oooooooooooooooooooo....    ++++oooooooooooooooooooo....    ",
"++++oooooooooooooooooooo....    ++++oooooooooooooooooooo....    ",
"++++oooooooooooooooooooo....    ++++oooooooooooooooooooo....    ",
"++++oooooooooooooooooooo....    ++++oooooooooooooooooooo....    ",
"++++........................    ++++........................    ",
"++++........................    ++++........................    ",
"++++........................    ++++........................    ",
"++++........................    ++++........................    ",
"                                                                ",
"                                                                ",
"                                                                ",
"                                                                "
};
